<?xml version="1.0" encoding="utf-8"?>
<!-- Generator: Adobe Illustrator 25.3.1, SVG Export Plug-In . SVG Version: 6.00 Build 0)  -->
<svg version="1.1" id="Camada_1" xmlns="http://www.w3.org/2000/svg" xmlns:xlink="http://www.w3.org/1999/xlink" x="0px" y="0px"
	 viewBox="0 0 139.05 113.05" style="enable-background:new 0 0 139.05 113.05;" xml:space="preserve">
<style type="text/css">
	.st0{fill:#3D4E9D;}
	.st1{fill:#452F69;}
</style>
<g>
	<g>
		<g>
			<g>
				<path class="st0" d="M105.97,29.32H46.56c-5.11,0-9.28-4.18-9.28-9.28v0c0-5.11,4.18-9.28,9.28-9.28h59.41
					c5.11,0,9.28,4.18,9.28,9.28v0C115.25,25.14,111.07,29.32,105.97,29.32z"/>
			</g>
			<g>
				<path class="st0" d="M92.49,102.29H33.08c-5.11,0-9.28-4.18-9.28-9.28v0c0-5.11,4.18-9.28,9.28-9.28h59.41
					c5.11,0,9.28,4.18,9.28,9.28v0C101.77,98.11,97.6,102.29,92.49,102.29z"/>
			</g>
			<g>
				<path class="st1" d="M116.88,71.32H22.17c-8.14,0-14.8-6.66-14.8-14.8v0c0-8.14,6.66-14.8,14.8-14.8h94.71
					c8.14,0,14.8,6.66,14.8,14.8v0C131.68,64.66,125.02,71.32,116.88,71.32z"/>
			</g>
		</g>
	</g>
</g>
</svg>
