<?xml version="1.0" encoding="utf-8"?>
<!-- Generator: Adobe Illustrator 25.2.3, SVG Export Plug-In . SVG Version: 6.00 Build 0)  -->
<svg version="1.1" xmlns="http://www.w3.org/2000/svg" xmlns:xlink="http://www.w3.org/1999/xlink" x="0px" y="0px"
	 viewBox="0 0 474.89 163.93" style="enable-background:new 0 0 474.89 163.93;" xml:space="preserve">
<style type="text/css">
	.st0{display:none;}
	.st1{display:inline;}
	.st2{fill:#452F69;}
	.st3{fill:#3D4E9D;}
	.st4{fill:url(#SVGID_1_);}
	.st5{fill:url(#SVGID_2_);}
	.st6{fill:url(#SVGID_3_);}
	.st7{fill:url(#SVGID_4_);}
	.st8{fill:url(#SVGID_5_);}
	.st9{fill:url(#SVGID_6_);}
	.st10{fill:url(#SVGID_7_);}
	.st11{fill:url(#SVGID_8_);}
	.st12{fill:url(#SVGID_9_);}
	.st13{fill:#FFFFFF;}
	.st14{font-family:'Magdelin-BoldItalic';}
	.st15{font-size:43.8617px;}
	.st16{fill:url(#SVGID_10_);}
	.st17{fill:url(#SVGID_11_);}
	.st18{fill:url(#SVGID_12_);}
	.st19{fill:url(#SVGID_13_);}
	.st20{fill:url(#SVGID_14_);}
	.st21{fill:url(#SVGID_15_);}
	.st22{fill:url(#SVGID_16_);}
	.st23{fill:url(#SVGID_17_);}
	.st24{fill:url(#SVGID_18_);}
</style>
<g id="Camada_1_cópia" class="st0">
	<g class="st1">
		<g>
			<g>
				<path class="st2" d="M149.58,1.87l-49.81,109.3H77.6L69.8,33.26l-32.48,77.92H15.15L0,1.87h21.86l8.28,81.04L63.71,1.87H85.1
					l7.96,81.04l33.88-81.04H149.58z"/>
				<path class="st2" d="M152.55,45.59h19.05l-10.31,65.58h-19.05L152.55,45.59z M154.42,19.83c1.09-7.03,6.56-11.55,13.58-11.55
					c7.18,0,11.09,4.53,9.99,11.55c-1.09,7.03-6.4,11.55-13.43,11.55C157.39,31.38,153.33,26.86,154.42,19.83z"/>
				<path class="st3" d="M175.97,94.93l14.05-16.55c7.18,9.68,18.11,15.3,29.67,15.3c11.24,0,20.61-5,21.86-12.65
					c3.28-20.92-58.4-9.37-52.15-49.03C192.52,12.02,210.47,0,234.21,0c15.77,0,29.67,5.78,36.38,14.37l-13.9,16.55
					c-5-6.87-14.83-11.55-25.61-11.55c-11.24,0-19.52,4.68-20.61,11.71c-3.12,19.99,58.55,8.12,52.15,48.4
					c-3.28,20.77-21.86,33.57-46.06,33.57C199.08,113.05,183.3,105.86,175.97,94.93z"/>
				<path class="st3" d="M417.35,1.87h19.05l-17.33,109.3h-19.05L417.35,1.87z"/>
				<path class="st3" d="M454.35,1.87h19.05l-17.33,109.3h-19.05L454.35,1.87z"/>
			</g>
			<g>
				<g>
					<path class="st3" d="M369.79,29.32h-59.41c-5.11,0-9.28-4.18-9.28-9.28v0c0-5.11,4.18-9.28,9.28-9.28h59.41
						c5.11,0,9.28,4.18,9.28,9.28v0C379.07,25.14,374.89,29.32,369.79,29.32z"/>
				</g>
				<g>
					<path class="st3" d="M356.31,102.29h-59.41c-5.11,0-9.28-4.18-9.28-9.28v0c0-5.11,4.18-9.28,9.28-9.28h59.41
						c5.11,0,9.28,4.18,9.28,9.28v0C365.6,98.11,361.42,102.29,356.31,102.29z"/>
				</g>
				<g>
					<path class="st2" d="M380.7,71.32h-94.71c-8.14,0-14.8-6.66-14.8-14.8v0c0-8.14,6.66-14.8,14.8-14.8h94.71
						c8.14,0,14.8,6.66,14.8,14.8v0C395.5,64.66,388.84,71.32,380.7,71.32z"/>
				</g>
			</g>
		</g>
	</g>
	<g class="st1">
		<linearGradient id="SVGID_1_" gradientUnits="userSpaceOnUse" x1="0.0741" y1="144.0822" x2="470.9627" y2="144.0822">
			<stop  offset="0" style="stop-color:#452F69"/>
			<stop  offset="1" style="stop-color:#3D4E9D"/>
		</linearGradient>
		<path class="st4" d="M249.19,142.01c-2.52,0-4.57,1.52-5.47,4.14c5.19-0.14,7.47-1,7.47-2.66
			C251.19,142.58,250.48,142.01,249.19,142.01z"/>
		<linearGradient id="SVGID_2_" gradientUnits="userSpaceOnUse" x1="0.0741" y1="144.0822" x2="470.9627" y2="144.0822">
			<stop  offset="0" style="stop-color:#452F69"/>
			<stop  offset="1" style="stop-color:#3D4E9D"/>
		</linearGradient>
		<path class="st5" d="M293.53,142.01c-2.52,0-4.57,1.52-5.47,4.14c5.19-0.14,7.47-1,7.47-2.66
			C295.53,142.58,294.82,142.01,293.53,142.01z"/>
		<linearGradient id="SVGID_3_" gradientUnits="userSpaceOnUse" x1="0" y1="140.9181" x2="470.8886" y2="140.9181">
			<stop  offset="0" style="stop-color:#452F69"/>
			<stop  offset="1" style="stop-color:#3D4E9D"/>
		</linearGradient>
		<path class="st6" d="M450.4,117.91H23.01C10.35,117.91,0,128.26,0,140.92v0c0,12.65,10.35,23.01,23.01,23.01H450.4
			c12.65,0,23.01-10.35,23.01-23.01v0C473.4,128.26,463.05,117.91,450.4,117.91z"/>
	</g>
	<g class="st1">
		<text transform="matrix(1 0 0 1 85.3368 153.1552)" class="st13 st14 st15">WiSeller - Admin</text>
	</g>
</g>
<g id="Camada_1">
	<g>
		<g>
			<g>
				<path class="st2" d="M149.58,1.87l-49.81,109.3H77.6L69.8,33.26l-32.48,77.92H15.15L0,1.87h21.86l8.28,81.04L63.71,1.87H85.1
					l7.96,81.04l33.88-81.04H149.58z"/>
				<path class="st2" d="M152.55,45.59h19.05l-10.31,65.58h-19.05L152.55,45.59z M154.42,19.83c1.09-7.03,6.56-11.55,13.58-11.55
					c7.18,0,11.09,4.53,9.99,11.55c-1.09,7.03-6.4,11.55-13.43,11.55C157.39,31.38,153.33,26.86,154.42,19.83z"/>
				<path class="st3" d="M175.97,94.93l14.05-16.55c7.18,9.68,18.11,15.3,29.67,15.3c11.24,0,20.61-5,21.86-12.65
					c3.28-20.92-58.4-9.37-52.15-49.03C192.52,12.02,210.47,0,234.21,0c15.77,0,29.67,5.78,36.38,14.37l-13.9,16.55
					c-5-6.87-14.83-11.55-25.61-11.55c-11.24,0-19.52,4.68-20.61,11.71c-3.12,19.99,58.55,8.12,52.15,48.4
					c-3.28,20.77-21.86,33.57-46.06,33.57C199.08,113.05,183.3,105.86,175.97,94.93z"/>
				<path class="st3" d="M417.35,1.87h19.05l-17.33,109.3h-19.05L417.35,1.87z"/>
				<path class="st3" d="M454.35,1.87h19.05l-17.33,109.3h-19.05L454.35,1.87z"/>
			</g>
			<g>
				<g>
					<path class="st3" d="M369.79,29.32h-59.41c-5.11,0-9.28-4.18-9.28-9.28v0c0-5.11,4.18-9.28,9.28-9.28h59.41
						c5.11,0,9.28,4.18,9.28,9.28v0C379.07,25.14,374.89,29.32,369.79,29.32z"/>
				</g>
				<g>
					<path class="st3" d="M356.31,102.29h-59.41c-5.11,0-9.28-4.18-9.28-9.28v0c0-5.11,4.18-9.28,9.28-9.28h59.41
						c5.11,0,9.28,4.18,9.28,9.28v0C365.6,98.11,361.42,102.29,356.31,102.29z"/>
				</g>
				<g>
					<path class="st2" d="M380.7,71.32h-94.71c-8.14,0-14.8-6.66-14.8-14.8v0c0-8.14,6.66-14.8,14.8-14.8h94.71
						c8.14,0,14.8,6.66,14.8,14.8v0C395.5,64.66,388.84,71.32,380.7,71.32z"/>
				</g>
			</g>
		</g>
	</g>
	<g>
		<linearGradient id="SVGID_4_" gradientUnits="userSpaceOnUse" x1="0.0741" y1="144.0822" x2="470.9627" y2="144.0822">
			<stop  offset="0" style="stop-color:#452F69"/>
			<stop  offset="1" style="stop-color:#3D4E9D"/>
		</linearGradient>
		<path class="st7" d="M249.19,142.01c-2.52,0-4.57,1.52-5.47,4.14c5.19-0.14,7.47-1,7.47-2.66
			C251.19,142.58,250.48,142.01,249.19,142.01z"/>
		<linearGradient id="SVGID_5_" gradientUnits="userSpaceOnUse" x1="0.0741" y1="144.0822" x2="470.9627" y2="144.0822">
			<stop  offset="0" style="stop-color:#452F69"/>
			<stop  offset="1" style="stop-color:#3D4E9D"/>
		</linearGradient>
		<path class="st8" d="M293.53,142.01c-2.52,0-4.57,1.52-5.47,4.14c5.19-0.14,7.47-1,7.47-2.66
			C295.53,142.58,294.82,142.01,293.53,142.01z"/>
		<linearGradient id="SVGID_6_" gradientUnits="userSpaceOnUse" x1="0" y1="140.9181" x2="470.8886" y2="140.9181">
			<stop  offset="0" style="stop-color:#452F69"/>
			<stop  offset="1" style="stop-color:#3D4E9D"/>
		</linearGradient>
		<path class="st9" d="M450.4,117.91H23.01C10.35,117.91,0,128.26,0,140.92v0c0,12.65,10.35,23.01,23.01,23.01H450.4
			c12.65,0,23.01-10.35,23.01-23.01v0C473.4,128.26,463.05,117.91,450.4,117.91z"/>
	</g>
	<g>
		<g>
			<path class="st13" d="M202.74,125.56l-13.99,30.71h-6.23l-2.19-21.89l-9.12,21.89h-6.23l-4.26-30.71h6.14l2.32,22.77l9.43-22.77
				h6.01l2.24,22.77l9.52-22.77H202.74z"/>
			<path class="st13" d="M203.56,137.85h5.35l-2.9,18.42h-5.35L203.56,137.85z M204.09,130.61c0.31-1.97,1.84-3.25,3.82-3.25
				c2.02,0,3.11,1.27,2.81,3.25s-1.8,3.25-3.77,3.25C204.92,133.86,203.78,132.58,204.09,130.61z"/>
			<path class="st13" d="M210.14,151.71l3.95-4.65c2.02,2.72,5.09,4.3,8.33,4.3c3.16,0,5.79-1.4,6.14-3.55
				c0.92-5.88-16.41-2.63-14.65-13.77c0.88-5.62,5.92-8.99,12.59-8.99c4.43,0,8.34,1.62,10.22,4.04l-3.9,4.65
				c-1.4-1.93-4.17-3.25-7.19-3.25c-3.16,0-5.48,1.32-5.79,3.29c-0.88,5.62,16.45,2.28,14.65,13.6c-0.92,5.83-6.14,9.43-12.94,9.43
				C216.64,156.8,212.2,154.78,210.14,151.71z"/>
			<path class="st13" d="M242.73,149.3c0.35,1.89,1.75,2.9,4.26,2.9c1.84,0,3.6-0.61,4.96-1.58l1.8,3.55
				c-1.84,1.54-5.04,2.63-8.16,2.63c-5.97,0-9.12-3.86-8.16-9.78c0.97-5.88,5.44-9.69,11.23-9.69c3.99,0,6.71,1.97,6.71,5.4
				C255.37,147.1,251.64,149.08,242.73,149.3z M250.06,143.29c0-0.83-0.66-1.36-1.84-1.36c-2.33,0-4.21,1.4-5.04,3.82
				C247.95,145.61,250.06,144.82,250.06,143.29z"/>
			<path class="st13" d="M262.08,125.56h5.35l-4.87,30.71h-5.35L262.08,125.56z"/>
			<path class="st13" d="M272.47,125.56h5.35l-4.87,30.71h-5.35L272.47,125.56z"/>
			<path class="st13" d="M283.61,149.3c0.35,1.89,1.75,2.9,4.26,2.9c1.84,0,3.6-0.61,4.96-1.58l1.8,3.55
				c-1.84,1.54-5.04,2.63-8.16,2.63c-5.97,0-9.12-3.86-8.16-9.78c0.97-5.88,5.44-9.69,11.23-9.69c3.99,0,6.71,1.97,6.71,5.4
				C296.25,147.1,292.52,149.08,283.61,149.3z M290.94,143.29c0-0.83-0.66-1.36-1.84-1.36c-2.33,0-4.21,1.4-5.04,3.82
				C288.83,145.61,290.94,144.82,290.94,143.29z"/>
			<path class="st13" d="M312.69,137.54l-1.01,5.88c-0.35-0.13-0.97-0.18-1.71-0.18c-1.8,0-3.6,0.92-4.87,2.63l-1.67,10.4h-5.35
				l2.9-18.42h4.21l0.31,3.03c1.8-2.28,3.9-3.51,6.01-3.51C311.99,137.36,312.43,137.45,312.69,137.54z"/>
		</g>
	</g>
</g>
</svg>
